<svg id="icons" enable-background="new 0 0 64 64" height="512" viewBox="0 0 64 64" width="512" xmlns="http://www.w3.org/2000/svg"><path d="m59.995 3.001h-55.99c-1.1 0-2 .9-2 2v28.002c0 1.1.9 2.001 2 2.001h.739 1.251 2.26 3.45.279 40.03.28 3.44 3.759.501c1.1 0 2-.901 2-2.001v-28.002c.001-1.1-.899-2-1.999-2z" fill="#ccd1d9"/><path d="m59.995 1h-55.99c-1.1 0-2 .9-2 2v28.001c0 1.1.9 2 2 2h.739 1.251 2.26 3.45.279 40.03.28 3.44 3.759.501c1.1 0 2-.901 2-2v-28.001c.001-1.1-.899-2-1.999-2z" fill="#e6e9ed"/><g fill="#ccd1d9"><path d="m15.995 26.002h-3c-.553 0-1 .448-1 1v3c0 .552.447 1 1 1h2.989c.553 0 1-.448 1-1l-.005-1.012c.011-.059.016-.118.016-.177v-1.811c0-.552-.447-1-1-1z"/><path d="m8.995 26.002h-3c-.553 0-1 .448-1 1v3c0 .552.447 1 1 1h3c.553 0 1-.448 1-1v-3c0-.552-.447-1-1-1z"/><path d="m50.995 12.001h-3c-.553 0-1 .448-1 1v3c0 .552.447 1 1 1h3c.553 0 1-.448 1-1v-3c0-.552-.447-1-1-1z"/><path d="m50.995 19.001h-3c-.553 0-1 .448-1 1v3c0 .552.447 1 1 1h3c.553 0 1-.448 1-1v-3c0-.552-.447-1-1-1z"/><path d="m57.995 26.002h-3c-.553 0-1 .448-1 1v3c0 .552.447 1 1 1h3c.553 0 1-.448 1-1v-3c0-.552-.447-1-1-1z"/><path d="m50.995 26.002h-3c-.553 0-1 .448-1 1v1.74c0 .036.002.072.006.108.006.054.014.108.014.162v.99c0 .552.447 1 1 1h2.98c.553 0 1-.448 1-1v-3c0-.552-.447-1-1-1z"/><circle cx="56.495" cy="7.5" r="2.5"/><circle cx="7.495" cy="7.5" r="2.5"/><circle cx="14.495" cy="7.5" r="2.5"/><path d="m43.995 26.002h-24c-.553 0-1 .448-1 1v3c0 .552.447 1 1 1h24c.553 0 1-.448 1-1v-3c0-.552-.447-1-1-1z"/><path d="m5.995 17.001h3c.553 0 1-.448 1-1v-3c0-.552-.447-1-1-1h-3c-.553 0-1 .448-1 1v3c0 .552.447 1 1 1z"/><path d="m15.995 12.001h-3c-.553 0-1 .448-1 1v3c0 .552.447 1 1 1h3c.553 0 1-.448 1-1v-3c0-.552-.447-1-1-1z"/><path d="m15.995 19.001h-10c-.553 0-1 .448-1 1v3c0 .552.447 1 1 1h10c.553 0 1-.448 1-1v-3c0-.552-.447-1-1-1z"/><circle cx="21.495" cy="7.5" r="2.5"/><path d="m19.995 17.001h3c.553 0 1-.448 1-1v-3c0-.552-.447-1-1-1h-3c-.553 0-1 .448-1 1v3c0 .552.447 1 1 1z"/><path d="m19.995 24.001h3c.553 0 1-.448 1-1v-3c0-.552-.447-1-1-1h-3c-.553 0-1 .448-1 1v3c0 .553.447 1 1 1z"/><circle cx="28.495" cy="7.5" r="2.5"/><circle cx="35.495" cy="7.5" r="2.5"/><path d="m33.995 17.001h3c.553 0 1-.448 1-1v-3c0-.552-.447-1-1-1h-3c-.553 0-1 .448-1 1v3c0 .552.447 1 1 1z"/><path d="m26.995 17.001h3c.553 0 1-.448 1-1v-3c0-.552-.447-1-1-1h-3c-.553 0-1 .448-1 1v3c0 .552.447 1 1 1z"/><path d="m26.995 24.001h3c.553 0 1-.448 1-1v-3c0-.552-.447-1-1-1h-3c-.553 0-1 .448-1 1v3c0 .553.447 1 1 1z"/><path d="m33.995 24.001h3c.553 0 1-.448 1-1v-3c0-.552-.447-1-1-1h-3c-.553 0-1 .448-1 1v3c0 .553.447 1 1 1z"/><path d="m43.995 12.001h-3c-.553 0-1 .448-1 1v3c0 .552.447 1 1 1h3c.553 0 1-.448 1-1v-3c0-.552-.447-1-1-1z"/><path d="m43.995 19.001h-3c-.553 0-1 .448-1 1v3c0 .552.447 1 1 1h3c.553 0 1-.448 1-1v-3c0-.552-.447-1-1-1z"/><path d="m57.995 12.001h-3c-.553 0-1 .448-1 1v10c0 .552.447 1 1 1h3c.553 0 1-.448 1-1v-10c0-.552-.447-1-1-1z"/><circle cx="49.495" cy="7.5" r="2.5"/><circle cx="42.495" cy="7.5" r="2.5"/></g><path d="m15.995 25.001h-3c-.553 0-1 .448-1 1v3c0 .552.447 1 1 1h2.989c.553 0 1-.448 1-1l-.005-1.012c.011-.059.016-.118.016-.177v-1.811c0-.552-.447-1-1-1z" fill="#fff"/><path d="m8.995 25.001h-3c-.553 0-1 .448-1 1v3c0 .552.447 1 1 1h3c.553 0 1-.448 1-1v-3c0-.552-.447-1-1-1z" fill="#fff"/><path d="m50.995 11h-3c-.553 0-1 .448-1 1v3c0 .552.447 1 1 1h3c.553 0 1-.448 1-1v-3c0-.552-.447-1-1-1z" fill="#fff"/><path d="m50.995 18.001h-3c-.553 0-1 .448-1 1v3c0 .552.447 1 1 1h3c.553 0 1-.448 1-1v-3c0-.552-.447-1-1-1z" fill="#fff"/><path d="m57.995 25.001h-3c-.553 0-1 .448-1 1v3c0 .552.447 1 1 1h3c.553 0 1-.448 1-1v-3c0-.552-.447-1-1-1z" fill="#fff"/><path d="m50.995 25.001h-3c-.553 0-1 .448-1 1v1.74c0 .036.002.072.006.108.006.054.014.108.014.162v.99c0 .552.447 1 1 1h2.98c.553 0 1-.448 1-1v-3c0-.552-.447-1-1-1z" fill="#fff"/><circle cx="56.495" cy="6.5" fill="#fff" r="2.5"/><circle cx="7.495" cy="6.5" fill="#fff" r="2.5"/><circle cx="14.495" cy="6.5" fill="#fff" r="2.5"/><path d="m43.995 25.001h-24c-.553 0-1 .448-1 1v3c0 .552.447 1 1 1h24c.553 0 1-.448 1-1v-3c0-.552-.447-1-1-1z" fill="#fff"/><path d="m5.995 16h3c.553 0 1-.448 1-1v-3c0-.552-.447-1-1-1h-3c-.553 0-1 .448-1 1v3c0 .553.447 1 1 1z" fill="#fff"/><path d="m15.995 11h-3c-.553 0-1 .448-1 1v3c0 .552.447 1 1 1h3c.553 0 1-.448 1-1v-3c0-.552-.447-1-1-1z" fill="#fff"/><path d="m15.995 18.001h-10c-.553 0-1 .448-1 1v3c0 .552.447 1 1 1h10c.553 0 1-.448 1-1v-3c0-.552-.447-1-1-1z" fill="#fff"/><circle cx="21.495" cy="6.5" fill="#fff" r="2.5"/><path d="m19.995 16h3c.553 0 1-.448 1-1v-3c0-.552-.447-1-1-1h-3c-.553 0-1 .448-1 1v3c0 .553.447 1 1 1z" fill="#fff"/><path d="m19.995 23.001h3c.553 0 1-.448 1-1v-3c0-.552-.447-1-1-1h-3c-.553 0-1 .448-1 1v3c0 .552.447 1 1 1z" fill="#fff"/><circle cx="28.495" cy="6.5" fill="#fff" r="2.5"/><circle cx="35.495" cy="6.5" fill="#fff" r="2.5"/><path d="m33.995 16h3c.553 0 1-.448 1-1v-3c0-.552-.447-1-1-1h-3c-.553 0-1 .448-1 1v3c0 .553.447 1 1 1z" fill="#fff"/><path d="m26.995 16h3c.553 0 1-.448 1-1v-3c0-.552-.447-1-1-1h-3c-.553 0-1 .448-1 1v3c0 .553.447 1 1 1z" fill="#fff"/><path d="m26.995 23.001h3c.553 0 1-.448 1-1v-3c0-.552-.447-1-1-1h-3c-.553 0-1 .448-1 1v3c0 .552.447 1 1 1z" fill="#fff"/><path d="m33.995 23.001h3c.553 0 1-.448 1-1v-3c0-.552-.447-1-1-1h-3c-.553 0-1 .448-1 1v3c0 .552.447 1 1 1z" fill="#fff"/><path d="m43.995 11h-3c-.553 0-1 .448-1 1v3c0 .552.447 1 1 1h3c.553 0 1-.448 1-1v-3c0-.552-.447-1-1-1z" fill="#fff"/><path d="m43.995 18.001h-3c-.553 0-1 .448-1 1v3c0 .552.447 1 1 1h3c.553 0 1-.448 1-1v-3c0-.552-.447-1-1-1z" fill="#fff"/><path d="m57.995 11h-3c-.553 0-1 .448-1 1v10c0 .552.447 1 1 1h3c.553 0 1-.448 1-1v-10c0-.552-.447-1-1-1z" fill="#fff"/><circle cx="49.495" cy="6.5" fill="#fff" r="2.5"/><circle cx="42.495" cy="6.5" fill="#fff" r="2.5"/><path d="m54.006 30.01c1.109 0 2 .891 2 2v15c0 2.961-1.611 5.54-4 6.931v5.055h-8v-5.185h-.01c-1.221-.78-2.25-1.88-3.08-3.101l-6.391-9.399c-.609-.9-.779-2.051 0-2.83.779-.78 2.029-.75 2.83 0l2.65 2.529v-13c0-1.109.889-2 2-2 1.1 0 2 .891 2 2v-3c0-1.109.889-2 2-2 1.109 0 2 .891 2 2v3c0-1.109.889-2 2-2 1.109 0 2 .891 2 2v4c.001-1.11.89-2 2.001-2z" fill="#eac6bb"/><path d="m52.003 39.009v-11.021c0 .008.003.014.003.021v4c0-.741.401-1.378.997-1.724v7.723c0 .554-.447 1.001-1 1.001z" fill="#d3b1a9"/><path d="m48.003 39.009v-14.021c0 .008.003.014.003.021v3c0-.741.401-1.378.997-1.724v11.723c0 .554-.447 1.001-1 1.001z" fill="#d3b1a9"/><path d="m45.003 38.009c0 .553-.447 1-1 1-.005 0-.008-.003-.013-.003l.012-12.02h.002v-1c.546.008.986.449.986.997h.013z" fill="#d3b1a9"/><path d="m19.984 28.01v-3c0-1.109-.889-2-2-2-1.1 0-2 .891-2 2v3c0-1.109-.889-2-2-2-1.1 0-2 .891-2 2v4c0-1.109-.889-2-2-2-1.1 0-2 .891-2 2v15c0 2.961 1.611 5.54 4 6.931v5.055h8v-5.185h.01c1.23-.78 2.262-1.88 3.09-3.101l6.381-9.399c.609-.9.779-2.051 0-2.83-.779-.78-2.02-.75-2.83 0l-2.65 2.529v-13c0-1.109-.889-2-2-2-1.1 0-2.001.89-2.001 2z" fill="#eac6bb"/><path d="m17.005 38.009c0 .553-.447 1-1 1-.005 0-.008-.003-.013-.003l.012-12.02h.002v-1c.546.008.986.449.986.997h.013z" fill="#d3b1a9"/><path d="m13.013 38.009c0 .553-.447 1-1 1-.005 0-.008-.003-.013-.003l.012-8.016h.002v-1c.546.008.986.449.986.997h.013z" fill="#d3b1a9"/><path d="m20 39.006v-11.11c.041-.691.424-1.283.987-1.609v11.723c0 .547-.44.989-.987.996z" fill="#d3b1a9"/><path d="m51.995 55.999c.55 0 1 .45 1 1v2.001c0 .55-.45 1-1 1h-8c-.55 0-1-.45-1-1v-2.001c0-.55.45-1 1-1z" fill="#e6e9ed"/><path d="m19.995 55.999c.55 0 1 .45 1 1v2.001c0 .55-.45 1-1 1h-8c-.55 0-1-.45-1-1v-2.001c0-.55.45-1 1-1z" fill="#e6e9ed"/><path d="m53.01 58.999h-10c-.55 0-1 .45-1 1v2.001 1h1 10 1v-1-2.001c0-.55-.45-1-1-1z" fill="#656d78"/><path d="m20.99 58.999h-10c-.55 0-1 .45-1 1v2.001 1h1 10 1v-1-2.001c0-.55-.45-1-1-1z" fill="#656d78"/></svg>